<svg width="20" height="20" viewBox="0 0 20 20" fill="none" xmlns="http://www.w3.org/2000/svg">
<circle cx="9.49985" cy="9.5" r="6.5" fill="#FFDA30"/>
<path d="M2.64453 2.31676L2.64448 2.31681C2.35712 2.60026 2.18372 2.77664 2.07826 2.89799C1.97253 3.01966 1.94018 3.0805 1.92749 3.13283L1.9275 3.13283L1.92737 3.13334C1.86265 3.38861 1.98542 3.66545 2.21794 3.7835L2.21795 3.7835L2.21865 3.78387C2.2793 3.81588 2.37503 3.83481 2.47409 3.83669C2.57273 3.83856 2.66397 3.82332 2.71795 3.79604C2.72588 3.79112 2.7456 3.77601 2.77722 3.74919C2.8088 3.72239 2.84932 3.68646 2.8959 3.64377C2.98902 3.5584 3.10559 3.44669 3.22216 3.32818L3.22216 3.32818L3.22245 3.32789C3.65044 2.8999 4.12161 2.51117 4.64374 2.16175C4.84578 2.02184 4.92474 1.94286 4.96951 1.83609L4.96948 1.83608L4.97022 1.83448C5.10078 1.55159 4.9742 1.19767 4.72295 1.09299L4.72261 1.09284C4.55559 1.02177 4.40228 1.02967 4.15569 1.12825C3.77488 1.28829 3.35508 1.61402 2.64453 2.31676Z" fill="#232323" stroke="#EBE9E5" stroke-width="0.1"/>
<path d="M13.7836 1.48537L13.7836 1.48556C13.7511 1.66222 13.8136 1.87043 13.9281 1.97855C13.9889 2.03161 14.1581 2.15857 14.3055 2.25942C14.746 2.55836 15.0999 2.85338 15.6131 3.35483L15.6132 3.35495L16.0762 3.81039L16.2838 3.82113L16.2838 3.82112L16.2847 3.82118C16.4216 3.83056 16.5269 3.81328 16.6109 3.76998C16.6943 3.72696 16.762 3.65557 16.819 3.54703L16.8191 3.54693C16.8711 3.44853 16.8965 3.35938 16.8987 3.27359C16.9009 3.18804 16.8801 3.10243 16.8343 3.01081C16.8253 2.99337 16.8026 2.96177 16.7649 2.91657C16.7281 2.87236 16.6796 2.8182 16.6222 2.75683C16.5075 2.63414 16.3586 2.484 16.1991 2.32933C15.8794 2.01945 15.52 1.69417 15.3098 1.53602L15.3098 1.53599C15.0427 1.3347 14.796 1.19307 14.5861 1.11521C14.3748 1.03681 14.2095 1.02618 14.0983 1.07309C14.045 1.09752 13.9723 1.16382 13.9077 1.24734C13.8431 1.33093 13.7952 1.42093 13.7836 1.48537Z" fill="#232323" stroke="#EBE9E5" stroke-width="0.1"/>
<path d="M8.40526 2.13544L8.40531 2.13543C8.54129 2.11655 9.05649 2.10854 9.54996 2.11637C10.2644 2.12808 10.5222 2.1476 10.8299 2.20912C11.9323 2.43818 12.9996 2.91181 13.8763 3.56736L13.8764 3.5674C14.2108 3.81675 14.6068 4.19508 14.9526 4.57885C15.2991 4.96338 15.5911 5.34883 15.7208 5.61192L15.7209 5.61218C15.7886 5.7475 15.8106 5.85551 15.794 5.953C15.7773 6.05067 15.7205 6.14623 15.6131 6.25368L15.6128 6.254C15.5095 6.35911 15.4138 6.41625 15.3175 6.43422C15.2217 6.45209 15.1179 6.43262 14.9956 6.36959L14.9941 6.36882L14.9941 6.36885C14.8587 6.30474 14.7755 6.21762 14.5524 5.90842C13.2889 4.11759 11.3666 3.1641 9.21654 3.25861C6.72181 3.36879 4.53615 4.84063 3.59852 7.04681C3.23984 7.8903 3.09043 8.77661 3.12581 9.78298L3.12581 9.78312C3.16123 10.7156 3.34644 11.4646 3.74406 12.2835C4.71663 14.2916 6.74028 15.662 8.93827 15.7999C10.1816 15.8786 11.2649 15.6501 12.359 15.0795C12.9422 14.7761 13.3446 14.476 13.8751 13.9495M8.40526 2.13544L13.8398 13.914M8.40526 2.13544C5.84438 2.48853 3.69886 4.1063 2.64334 6.48122L2.64331 6.4813M8.40526 2.13544L2.64331 6.4813M13.8751 13.9495L13.8398 13.914M13.8751 13.9495C13.8751 13.9495 13.8751 13.9495 13.8751 13.9495L13.8398 13.914M13.8751 13.9495C14.126 13.7006 14.2805 13.562 14.4047 13.4911C14.4654 13.4565 14.5175 13.4389 14.5689 13.4325C14.6207 13.426 14.6747 13.4304 14.7402 13.4435L14.7424 13.444L14.7424 13.4439C14.828 13.4571 14.9202 13.5143 15.031 13.6252L15.0315 13.6256C15.1086 13.7007 15.1438 13.7407 15.1623 13.7797C15.18 13.8169 15.1844 13.8574 15.1844 13.9414C15.1844 14.0629 15.1635 14.1599 15.1023 14.2701C15.0397 14.3827 14.9343 14.5107 14.7608 14.6919L14.7608 14.6919L14.7969 14.7265M13.8398 13.914C14.3398 13.4179 14.4766 13.3398 14.75 13.3945C14.8516 13.4101 14.9531 13.4765 15.0664 13.5898C15.2187 13.7383 15.2344 13.7734 15.2344 13.9414C15.2344 14.1992 15.1445 14.3633 14.7969 14.7265M14.7969 14.7265L14.7607 14.692M14.7969 14.7265L14.4961 15.039L14.9805 15.5234C15.25 15.7929 15.4961 16.0664 15.5273 16.1328L14.7607 14.692M14.7607 14.692L14.4601 15.0044L14.426 15.0397L14.4607 15.0744L14.9451 15.5588C15.0793 15.693 15.2076 15.8281 15.3061 15.9377C15.3553 15.9925 15.3968 16.0406 15.4277 16.0789C15.46 16.1189 15.4773 16.1438 15.4821 16.1541L15.4822 16.1544C15.6399 16.4841 15.4467 16.8761 15.0906 16.959M14.7607 14.692L13.2812 15.9336L13.2544 15.8914C13.2544 15.8914 13.2545 15.8913 13.2545 15.8913C13.2989 15.8631 13.3446 15.8377 13.3831 15.8192C13.4024 15.8099 13.4205 15.8021 13.4363 15.7964C13.4502 15.7914 13.4681 15.7859 13.4844 15.7859C13.4938 15.7859 13.5013 15.7884 13.5049 15.7897C13.5092 15.7913 13.513 15.7931 13.516 15.7948C13.5221 15.798 13.5284 15.8021 13.5345 15.8064C13.547 15.8151 13.5625 15.8272 13.5802 15.8418C13.6159 15.8712 13.6636 15.9133 13.7197 15.9645C13.8322 16.0671 13.9801 16.2082 14.1367 16.3628L14.1369 16.3631C14.4431 16.6692 14.6172 16.8321 14.7491 16.9123C14.8134 16.9514 14.8655 16.9693 14.9162 16.9749C14.9676 16.9806 15.0213 16.9742 15.0906 16.959M15.0906 16.959C15.0907 16.959 15.0908 16.959 15.0909 16.9589L15.1016 17.0078L15.0902 16.9591C15.0903 16.9591 15.0905 16.959 15.0906 16.959ZM2.64331 6.4813C1.73496 8.51538 1.74311 10.7774 2.65842 12.7089C3.01155 13.4501 3.38344 13.9886 3.96952 14.5941L3.96962 14.5942M2.64331 6.4813L3.96962 14.5942M3.96962 14.5942C4.06953 14.698 4.16083 14.7962 4.22732 14.8711C4.2605 14.9084 4.28791 14.9404 4.30722 14.9646C4.31679 14.9767 4.32498 14.9875 4.331 14.9965C4.33396 15.0009 4.33705 15.0059 4.33958 15.0109L4.33971 15.0111C4.34123 15.0141 4.34687 15.0252 4.34687 15.039C4.34687 15.0512 4.34239 15.0605 4.34141 15.0625L4.34132 15.0627C4.3396 15.0663 4.33771 15.0694 4.33627 15.0717C4.33331 15.0763 4.32961 15.0813 4.32578 15.0863C4.31796 15.0964 4.30697 15.1095 4.29353 15.1251C4.26649 15.1563 4.22772 15.1991 4.1802 15.2503C4.08506 15.3528 3.95384 15.4899 3.80903 15.6367L3.80895 15.6367M3.96962 14.5942L3.80895 15.6367M3.80895 15.6367C3.59385 15.8538 3.46376 15.9908 3.38499 16.0877C3.30646 16.1843 3.28353 16.2357 3.27588 16.2816L3.27589 16.2816M3.80895 15.6367L3.27589 16.2816M3.27589 16.2816L3.27573 16.2825M3.27589 16.2816L3.27573 16.2825M3.27573 16.2825C3.21432 16.6148 3.43803 16.9178 3.75049 16.9502C3.80109 16.9539 3.86049 16.9548 3.91426 16.9529C3.96954 16.951 4.01447 16.9462 4.0379 16.9399L4.03789 16.9399M3.27573 16.2825L4.03789 16.9399M4.03789 16.9399L4.03933 16.9396M4.03789 16.9399L4.03933 16.9396M4.03933 16.9396C4.03929 16.9396 4.03929 16.9396 4.03934 16.9396M4.03933 16.9396L4.03934 16.9396M4.03934 16.9396C4.03959 16.9395 4.04123 16.939 4.04457 16.9375M4.03934 16.9396L4.04457 16.9375M4.04457 16.9375C4.04828 16.9358 4.05314 16.9332 4.05924 16.9296M4.04457 16.9375L4.05924 16.9296M4.05924 16.9296C4.07149 16.9224 4.08709 16.9119 4.10609 16.898M4.05924 16.9296L4.10609 16.898M4.10609 16.898C4.14402 16.8701 4.19305 16.8302 4.25188 16.7791M4.10609 16.898L4.25188 16.7791M4.25188 16.7791C4.36942 16.677 4.52386 16.5324 4.70312 16.355L4.25188 16.7791ZM8.39843 2.08591C5.82031 2.44138 3.66015 4.07028 2.59765 6.46091L8.39843 2.08591Z" fill="#232323" stroke="#EBE9E5" stroke-width="0.1"/>
<path d="M14.8089 7.85653L14.8083 7.85681C14.6439 7.94275 14.5679 8.02097 14.5149 8.14814L14.5148 8.14828C14.4109 8.39571 14.485 8.66455 14.7097 8.835C14.7441 8.86057 14.767 8.87695 14.7934 8.8895C14.819 8.90173 14.8501 8.91126 14.9001 8.91882C15.0027 8.93436 15.1735 8.9402 15.517 8.95002C15.517 8.95002 15.517 8.95002 15.5171 8.95002L16.2123 8.96955L16.3127 8.97237L16.25 9.05077L15.4062 10.1055L15.4062 10.1055C15.1739 10.3944 14.9563 10.6705 14.793 10.8821C14.7113 10.9879 14.6433 11.0775 14.5938 11.1444C14.5691 11.1778 14.5492 11.2054 14.5345 11.2264C14.5191 11.2485 14.5116 11.2606 14.5096 11.2645L14.5096 11.2646L14.5091 11.2655C14.4766 11.3272 14.4642 11.4319 14.4746 11.5427C14.4849 11.6532 14.5167 11.756 14.5597 11.8139L14.5597 11.8139L14.5602 11.8147C14.5954 11.864 14.6772 11.9424 14.7327 11.9831L14.7327 11.9831L14.7329 11.9833C14.7567 12.0009 14.7737 12.0119 14.8068 12.021C14.8426 12.0308 14.898 12.0385 14.9983 12.0438C15.1982 12.0545 15.5617 12.0555 16.2695 12.0555C16.9793 12.0555 17.3428 12.0545 17.5427 12.0438C17.6429 12.0385 17.6984 12.0309 17.7346 12.021C17.7679 12.0119 17.7855 12.0008 17.8104 11.983C17.9905 11.8487 18.077 11.6726 18.077 11.5C18.077 11.3274 17.9904 11.1512 17.8102 11.0168C17.7871 10.9999 17.7678 10.9883 17.7429 10.9792C17.7172 10.9697 17.6834 10.962 17.6305 10.9559C17.5236 10.9436 17.3498 10.9387 17.0304 10.9328L17.0303 10.9328L16.3312 10.9211L16.2295 10.9194L16.2929 10.8399L17.1562 9.75788L17.1564 9.75767C17.4002 9.45536 17.6215 9.16973 17.7856 8.94961C17.8677 8.83951 17.9353 8.74605 17.9842 8.67521C18.0087 8.63976 18.0282 8.61031 18.0425 8.58745C18.057 8.56416 18.0641 8.55071 18.0663 8.54523C18.1547 8.28936 18.0305 7.99934 17.7753 7.87713L17.7753 7.87713L17.7745 7.87675C17.7373 7.85815 17.7073 7.8451 17.6634 7.83498C17.6183 7.82459 17.5571 7.81696 17.4578 7.81165C17.2588 7.801 16.9168 7.8 16.2656 7.8C15.6852 7.8 15.3416 7.80196 15.1305 7.8107C14.9164 7.81956 14.8479 7.83548 14.8089 7.85653Z" fill="#232323" stroke="#EBE9E5" stroke-width="0.1"/>
<path d="M9.76563 5.09375L9.73646 5.13437C9.66945 5.08626 9.56826 5.05304 9.46207 5.04192C9.35568 5.03077 9.25254 5.04264 9.18165 5.07639L9.18168 5.07645L9.17939 5.0774C9.11882 5.10264 9.04364 5.16297 8.97903 5.23465C8.91369 5.30715 8.86813 5.3813 8.85737 5.42898L8.85738 5.42899L8.85726 5.42945C8.8573 5.4293 8.85732 5.42922 8.85733 5.42923C8.8574 5.42924 8.85695 5.43237 8.85638 5.44103C8.85576 5.45048 8.85514 5.46363 8.85453 5.48049C8.85333 5.51414 8.85224 5.56126 8.85126 5.62051C8.84931 5.73894 8.84785 5.90485 8.84687 6.1062C8.84492 6.50885 8.84492 7.05265 8.84687 7.64046L8.84694 7.65265C8.85276 8.69595 8.85571 9.22579 8.86734 9.50869C8.8732 9.65126 8.88117 9.72747 8.89177 9.77407C8.90135 9.81619 8.91255 9.8326 8.93015 9.85608C8.97396 9.91063 9.06275 9.99171 9.13052 10.0309L9.13052 10.0309L9.131 10.0312C9.15927 10.048 9.18274 10.0597 9.223 10.069C9.26521 10.0788 9.32664 10.0861 9.43067 10.0912C9.63859 10.1014 10.0051 10.1023 10.7031 10.1023C11.407 10.1023 11.7725 10.1013 11.9789 10.0907C12.0821 10.0854 12.1425 10.0777 12.1843 10.0675C12.2243 10.0578 12.2484 10.0454 12.2793 10.0272L12.2796 10.0271C12.6588 9.80675 12.6703 9.26392 12.3098 9.04261C12.2821 9.02565 12.259 9.01393 12.2249 9.00477C12.1895 8.99524 12.1406 8.98805 12.0613 8.983C11.9022 8.97288 11.6317 8.97188 11.125 8.97188H10.0391H9.98906V8.92188V7.21094C9.98906 6.41946 9.9871 5.99101 9.9769 5.74179C9.96671 5.49294 9.94841 5.42945 9.9192 5.36417L9.91899 5.36369C9.8835 5.28205 9.79937 5.1798 9.73635 5.13428L9.76563 5.09375ZM9.76563 5.09375C9.83594 5.14453 9.92578 5.25391 9.96484 5.34375L8.80859 5.41797C8.83594 5.29688 9.01953 5.08984 9.16016 5.03125C9.32422 4.95313 9.61328 4.98438 9.76563 5.09375Z" fill="#232323" stroke="#EBE9E5" stroke-width="0.1"/>
</svg>
