<svg width="20" height="21" viewBox="0 0 20 21" fill="none" xmlns="http://www.w3.org/2000/svg">
<path d="M18.3333 2.65259H13.3333C12.4492 2.65259 11.6014 3.00254 10.9763 3.62547C10.3512 4.2484 9.99997 5.09327 9.99997 5.97423V17.6C9.99997 16.9392 10.2634 16.3056 10.7322 15.8384C11.201 15.3712 11.8369 15.1087 12.5 15.1087H18.3333V2.65259Z" stroke="#232323" stroke-linecap="round" stroke-linejoin="round"/>
<path d="M1.66663 2.65259H6.66663C7.55068 2.65259 8.39853 3.00254 9.02365 3.62547C9.64877 4.2484 9.99996 5.09327 9.99996 5.97423V17.6C9.99996 16.9392 9.73657 16.3056 9.26773 15.8384C8.79889 15.3712 8.163 15.1087 7.49996 15.1087H1.66663V2.65259Z" stroke="#232323" stroke-linecap="round" stroke-linejoin="round"/>
</svg>
