<svg width="18" height="18" viewBox="0 0 18 18" fill="none" xmlns="http://www.w3.org/2000/svg">
<path d="M4.1815 16.9335C4.13072 16.9559 4.07383 16.9754 4.01194 16.9877C4.09906 16.9792 4.10144 16.9783 4.11162 16.9745C4.11188 16.9744 4.11215 16.9743 4.11242 16.9742C4.11801 16.9721 4.13732 16.9642 4.1815 16.9335ZM9.25974 12.7713C9.1925 12.7594 9.11923 12.7536 9.04342 12.7535C9.1103 12.755 9.18442 12.7601 9.25974 12.7713ZM13.9565 16.9845C13.8968 16.9685 13.8447 16.9448 13.8009 16.9201C13.8585 16.9621 13.8824 16.9718 13.8887 16.9742L13.8895 16.9745C13.8982 16.9778 13.9012 16.9789 13.9565 16.9845ZM14.8506 2.03604C14.8517 2.05443 14.8527 2.07418 14.8537 2.09542C14.8527 2.0438 14.8517 1.99943 14.8507 1.96224C14.8495 1.9191 14.8483 1.88823 14.8472 1.86799C14.8472 1.86706 14.8472 1.86617 14.8471 1.86532C14.8361 1.8134 14.8208 1.76242 14.8016 1.71281C14.833 1.80992 14.8433 1.91051 14.8506 2.03604ZM14.8461 1.84951C14.8461 1.84972 14.8461 1.85057 14.8463 1.85198L14.8461 1.84951ZM14.8521 1.89019L14.8512 1.88556C14.8515 1.88707 14.8518 1.88862 14.8521 1.89019ZM9.03777 1.00658L13.0684 1.01196C12.8758 1.01003 12.6612 1.00833 12.4288 1.00684C11.4713 1.00073 10.2166 0.998447 8.96248 0.999691C8.33869 1.00031 7.71534 1.0018 7.12906 1.00413C7.45118 1.00445 7.80532 1.00493 8.19474 1.00546C8.45913 1.00583 8.73978 1.00621 9.03772 1.00658H9.03777ZM3.79394 1.0858C3.88859 1.05825 4.00664 1.04229 4.15317 1.03201C4.09334 1.03352 4.04228 1.03506 4.00044 1.03662C3.96525 1.03794 3.93893 1.03919 3.92055 1.04029C3.87599 1.05269 3.83228 1.06837 3.78972 1.08704C3.79112 1.08662 3.79253 1.08621 3.79394 1.0858ZM3.89594 1.04215C3.89605 1.04217 3.8978 1.04202 3.90085 1.04166C3.89736 1.04196 3.89584 1.04214 3.89594 1.04215ZM3.14993 2.00944C3.14791 2.09863 3.14597 2.21657 3.14415 2.3606C3.15427 2.05084 3.17045 1.84699 3.20482 1.70744C3.20725 1.69759 3.20983 1.68776 3.21257 1.67797C3.18758 1.73759 3.16798 1.79948 3.15451 1.8629C3.15431 1.86691 3.15408 1.87182 3.15383 1.87773C3.15257 1.90761 3.15126 1.95131 3.14993 2.00944Z" stroke="#232323"/>
</svg>
