<svg width="126" height="34" viewBox="0 0 126 34" fill="none" xmlns="http://www.w3.org/2000/svg">
<path d="M81.1982 3.10889H85.3401V24.4676H81.1982V3.10889ZM100.974 14.6403C101.324 15.4924 101.557 16.5149 101.557 17.5373V18.0487C101.557 18.219 101.557 18.4462 101.557 18.7871V19.1279H91.8154C91.8736 19.2415 91.932 19.3551 91.9905 19.4688C92.1653 19.7529 92.3988 19.98 92.6904 20.2072C92.9821 20.4345 93.332 20.6049 93.7405 20.7752C94.0904 20.9457 94.5571 21.0025 95.0823 21.0025C95.6072 21.0025 96.1906 20.8888 96.7739 20.7184C97.3573 20.5481 97.8822 20.2072 98.4073 19.7529L98.7572 19.4688L100.916 22.593L100.624 22.8203C100.041 23.2746 99.2824 23.7292 98.3489 24.1267C97.4157 24.5244 96.249 24.7517 95.0238 24.7517C93.9738 24.7517 92.9237 24.5812 92.0487 24.1835C91.1737 23.8428 90.357 23.2746 89.657 22.6498C88.9569 22.025 88.4319 21.2297 88.0236 20.3209C87.6153 19.4688 87.4403 18.5031 87.4403 17.4805C87.4403 16.4581 87.6153 15.5492 87.9652 14.6971C88.3153 13.8451 88.8402 13.0498 89.4236 12.4249C90.0069 11.8001 90.7653 11.2888 91.6404 10.8912C92.5154 10.4936 93.4488 10.3231 94.4989 10.3231C95.4906 10.3231 96.4238 10.4936 97.2406 10.8344C98.1157 11.1752 98.874 11.6865 99.5156 12.3113C100.099 12.993 100.566 13.7883 100.974 14.6403ZM97.7073 16.0037C97.6489 15.89 97.6489 15.7764 97.5905 15.6628C97.4739 15.3788 97.2989 15.1516 97.0656 14.9243C96.8323 14.6971 96.5406 14.5267 96.1906 14.3563C95.8405 14.1859 95.3739 14.1291 94.9072 14.1291C94.4405 14.1291 93.9738 14.1859 93.6239 14.3563C93.332 14.4699 93.0403 14.6971 92.7487 14.9243C92.5154 15.1516 92.3404 15.3788 92.2237 15.6628C92.1653 15.7764 92.1071 15.9468 92.1071 16.0605H97.7073V16.0037ZM125.242 18.3894C124.95 17.9351 124.6 17.5373 124.133 17.1966C123.725 16.9125 123.2 16.6285 122.616 16.4581C122.15 16.2877 121.566 16.1173 120.866 16.0037C119.7 15.7764 118.941 15.5492 118.533 15.3788C118.066 15.2084 118.066 14.9812 118.066 14.9243C118.066 14.7539 118.125 14.5267 118.591 14.3563C119 14.1859 119.525 14.0723 120.05 14.0723C120.691 14.0723 121.275 14.1859 121.8 14.4131C122.325 14.6403 122.792 14.8675 123.2 15.1516L123.55 15.3788L125.65 12.3113L125.358 12.0841C124.833 11.6865 124.133 11.3456 123.258 11.0048C122.383 10.664 121.275 10.4368 120.05 10.4368C119.116 10.4368 118.241 10.5504 117.541 10.7776C116.841 11.0048 116.2 11.3456 115.616 11.8001C115.091 12.2545 114.683 12.709 114.391 13.277C114.099 13.8451 113.983 14.4131 113.983 15.038C113.983 15.7196 114.158 16.2877 114.45 16.7989C114.741 17.2534 115.15 17.651 115.675 18.0487C116.141 18.3894 116.725 18.6735 117.366 18.9008C117.891 19.1279 118.533 19.2983 119.233 19.412C119.466 19.4688 119.816 19.5256 120.283 19.6392C120.575 19.696 120.866 19.7529 121.1 19.8663C121.275 19.9231 121.392 20.0368 121.508 20.0936C121.566 20.1504 121.625 20.264 121.625 20.3777C121.625 20.6049 121.566 20.832 121.158 21.0025C120.691 21.1729 120.225 21.2866 119.7 21.2866C119.233 21.2866 118.825 21.2297 118.416 21.1161C118.008 21.0025 117.658 20.8888 117.366 20.7184C117.016 20.5481 116.725 20.3209 116.491 20.1504C116.258 19.98 116.025 19.7529 115.791 19.5256L115.5 19.2415L113.166 22.1955L113.399 22.4226C113.691 22.7066 114.041 23.0475 114.508 23.3315C114.916 23.6155 115.441 23.8996 115.966 24.1267C116.55 24.354 117.133 24.5812 117.716 24.6949C118.358 24.8653 119.058 24.922 119.816 24.922C120.633 24.922 121.392 24.8085 122.092 24.6381C122.85 24.4108 123.492 24.1267 124.075 23.786C124.658 23.3883 125.125 22.8771 125.475 22.3091C125.825 21.6841 126 21.0025 126 20.264C125.909 19.3317 125.533 18.9008 125.242 18.3894ZM113.866 11.232L113.575 11.0616C112.699 10.5504 111.824 10.3231 110.716 10.3231C109.783 10.3231 109.083 10.4936 108.441 10.8344C108.208 11.0048 107.916 11.1752 107.624 11.4024V10.664H103.541V24.4108H107.683V17.8782C107.683 16.9693 107.683 15.7764 108.499 14.9243C109.024 14.3563 109.608 14.2995 110.308 14.2995C110.541 14.2995 111.124 14.2995 111.824 14.7539L112.233 14.9812L113.866 11.232ZM79.2733 17.4237C79.2733 19.3551 78.5732 21.0025 77.2316 22.3657C75.8898 23.7292 74.198 24.4676 72.2731 24.4676C70.9896 24.4676 69.8229 24.1267 68.7728 23.4451V30.489H64.8061V10.7208H68.7728V11.3456C69.7646 10.7208 70.9313 10.4368 72.1563 10.4368C74.1398 10.4368 75.8314 11.1184 77.2316 12.4817C78.5732 13.8451 79.2733 15.4924 79.2733 17.4237ZM75.1899 17.4237C75.1899 15.606 73.6731 14.0723 71.748 14.0723C69.8229 14.0723 68.3063 15.5492 68.3063 17.4237C68.3063 19.2983 69.8229 20.7752 71.748 20.7752C73.6731 20.7752 75.1899 19.2415 75.1899 17.4237ZM58.7392 10.7208V17.367C58.7392 19.2983 57.1641 20.832 55.1806 20.832C53.1973 20.832 51.6223 19.2983 51.6223 17.367V10.7208H47.5388V17.367C47.5388 21.457 50.9805 24.8085 55.1806 24.8085C59.3809 24.8085 62.8226 21.457 62.8226 17.367V10.7208H58.7392Z" fill="#FFFCF0"/>
<path fill-rule="evenodd" clip-rule="evenodd" d="M30.6227 0.325065C33.7145 -0.527012 37.0396 0.325064 39.3148 2.54046C41.5898 4.75587 42.4648 7.99375 41.7064 11.118L39.4898 19.582L39.4886 19.5876C39.3722 20.0969 39.2557 20.6064 39.0813 21.1157L39.0231 21.2294V21.2862C38.9654 21.3985 38.9078 21.5663 38.8501 21.7346L38.8481 21.7405C36.4563 29.2388 30.7978 36.51 20.1224 32.42C12.8888 29.6933 3.3218 21.7405 0.34669 14.5832C-2.23897 8.46842 10.2589 5.42142 17.2447 3.7183C17.9816 3.53863 18.6573 3.37391 19.2474 3.22212L30.6227 0.325065ZM31.7914 19.9224L34.5916 9.18619C34.7666 8.61814 34.5916 8.05009 34.1248 7.53885C33.7165 7.1412 33.1332 7.0276 32.5498 7.1412L21.5243 9.92465C20.766 10.0951 20.241 10.7767 20.241 11.5152C20.2992 11.9128 20.4743 12.3105 20.7659 12.5945C20.9994 12.8217 21.2911 12.9921 21.641 13.0489L26.3078 13.9578C26.6579 14.0146 26.9496 14.185 27.1828 14.4123C27.4163 14.6963 27.5913 14.9803 27.6495 15.2643L28.583 19.8087C28.6996 20.604 29.3996 21.172 30.158 21.172C30.9164 21.172 31.558 20.6608 31.7914 19.9224Z" fill="#FFFCF0"/>
</svg>
