<svg width="16" height="16" viewBox="0 0 16 16" fill="none" xmlns="http://www.w3.org/2000/svg">
<g clip-path="url(#clip0_2158_338)">
<path d="M6.06321 9.38952C5.5659 8.94816 5.26318 8.34841 5.26318 7.6756C5.26318 6.32769 6.48441 5.24121 7.9997 5.24121C8.74956 5.24121 9.43975 5.5111 9.92841 5.95246" stroke="white" stroke-width="0.666667" stroke-linecap="round" stroke-linejoin="round"/>
<path d="M10.6854 8.10693C10.4848 9.09884 9.60606 9.88159 8.49121 10.0615" stroke="white" stroke-width="0.666667" stroke-linecap="round" stroke-linejoin="round"/>
<path d="M3.37691 11.7771C2.00433 10.8191 0.841916 9.41965 -0.000488281 7.67497C0.850565 5.92261 2.02076 4.51549 3.402 3.54973C4.77458 2.58397 6.3582 2.05957 7.99976 2.05957C9.65084 2.05957 11.2336 2.59166 12.6148 3.56434" stroke="white" stroke-width="0.666667" stroke-linecap="round" stroke-linejoin="round"/>
<path d="M14.4414 5.25562C15.0365 5.95841 15.5597 6.76961 16 7.67463C14.2987 11.1786 11.2924 13.2893 7.99972 13.2893C7.25332 13.2893 6.5173 13.1816 5.80981 12.9717" stroke="white" stroke-width="0.666667" stroke-linecap="round" stroke-linejoin="round"/>
<path d="M14.8215 1.61011L1.17871 13.739" stroke="white" stroke-width="0.666667" stroke-linecap="round" stroke-linejoin="round"/>
</g>
<defs>
<clipPath id="clip0_2158_338">
<rect width="16" height="16" fill="white"/>
</clipPath>
</defs>
</svg>
