<svg width="16" height="16" viewBox="0 0 16 16" fill="none" xmlns="http://www.w3.org/2000/svg">
<path d="M10.8499 1.49442L10.851 1.49715L10.9291 1.7034L11.0451 2.00966L10.7965 2.22289L8.46557 4.22266L8.46529 4.22289L6.13432 6.22578L5.84082 6.47797L5.53866 6.23624L5.43158 6.15058C5.11037 5.90076 4.63954 5.79218 4.25297 5.87502L4.25013 5.87561C4.07914 5.91114 3.86619 6.00524 3.69025 6.12103C3.61803 6.16856 3.56136 6.2137 3.52156 6.25137C3.67402 6.43679 4.00925 6.77218 4.74767 7.5106C5.12339 7.88632 5.4653 8.23136 5.71376 8.48533C5.83774 8.61205 5.93977 8.71745 6.01147 8.79309C6.04688 8.83045 6.07739 8.86319 6.10013 8.8886C6.11082 8.90054 6.12411 8.91566 6.1364 8.93091C6.14177 8.93756 6.15325 8.95197 6.16551 8.97019C6.17118 8.9786 6.18345 8.99726 6.19609 9.02222C6.19615 9.02234 6.19627 9.02257 6.19644 9.0229C6.20122 9.03187 6.24685 9.11766 6.24685 9.23433C6.24685 9.32781 6.21814 9.39675 6.211 9.41389L6.21087 9.41421C6.19959 9.44128 6.1881 9.46163 6.18207 9.4719C6.16966 9.49304 6.15812 9.50885 6.15344 9.51519C6.14271 9.52971 6.13269 9.54163 6.12778 9.54742C6.11643 9.5608 6.1035 9.57514 6.09174 9.58796C6.06713 9.61481 6.0331 9.65088 5.99215 9.69373C5.9096 9.78013 5.79144 9.90194 5.64711 10.0496C5.35809 10.3453 4.9603 10.7486 4.52384 11.1881L4.52343 11.1886C2.58696 13.134 2.22018 13.5293 0.864827 15.2042C0.886808 15.1868 0.909344 15.1689 0.932402 15.1506C1.24304 14.9031 1.63929 14.5773 2.02824 14.2473L2.02868 14.2469C2.80783 13.5874 3.4566 12.9792 4.96058 11.4846C4.96059 11.4846 4.9606 11.4846 4.96061 11.4846L6.51682 9.93773L6.8468 9.60974L7.17579 9.93872L8.48204 11.245L9.65996 12.4229C9.68006 12.4017 9.70613 12.3719 9.74088 12.3294L9.74201 12.3281C9.96656 12.0557 10.0729 11.7577 10.0729 11.4062C10.0729 11.0543 9.99423 10.8047 9.78791 10.5118L9.68333 10.3672L9.46772 10.0692L9.70718 9.78993L11.6822 7.4868L11.6825 7.48645C12.2261 6.85375 12.7229 6.27495 13.0853 5.8524C13.3892 5.49808 13.5909 5.26258 13.6523 5.19089C13.6611 5.18053 13.6671 5.17359 13.67 5.17021C13.8049 4.99714 13.9987 4.9872 14.034 4.98549C14.1028 4.98217 14.1616 4.99288 14.1951 5.00014C14.2679 5.01592 14.3418 5.04302 14.4062 5.07035L14.4062 5.07028L14.4141 5.07378C14.4141 5.07378 14.4147 5.07404 14.4159 5.07454L14.4213 5.07656C14.4261 5.07826 14.4326 5.08039 14.441 5.08281C14.458 5.08774 14.4799 5.09308 14.5067 5.0983C14.5605 5.10882 14.6251 5.11717 14.6936 5.1219C14.8404 5.13205 14.9538 5.12231 14.9982 5.11133C15.1155 5.07896 15.2442 5.01479 15.3454 4.94079C15.3716 4.92166 15.3935 4.90364 15.4112 4.88752C15.3944 4.86674 15.3733 4.84165 15.3472 4.81176C15.0989 4.52771 14.5711 3.99926 13.4669 2.89367C13.4126 2.83939 13.357 2.78371 13.3 2.7266L13.2998 2.7264C12.6846 2.10967 12.1157 1.54232 11.6953 1.12546C11.4851 0.916947 11.3124 0.746556 11.1899 0.626628C11.1343 0.572167 11.0897 0.528797 11.0569 0.497256C11.0481 0.506195 11.0385 0.516318 11.0284 0.527582C10.9754 0.586581 10.9305 0.650778 10.9075 0.695049C10.7799 0.944277 10.7637 1.27095 10.8499 1.49442ZM3.47041 6.30787C3.47043 6.30787 3.47072 6.30744 3.47122 6.30658L3.47041 6.30787ZM0.412813 15.5455C0.411867 15.5461 0.411369 15.5464 0.411356 15.5464L0.412813 15.5455ZM15.4629 4.83165C15.4629 4.83163 15.4626 4.83204 15.4621 4.83287L15.4629 4.83165ZM11.0027 0.446046C11.003 0.446346 11.0043 0.447474 11.0063 0.449222C11.0034 0.446591 11.0023 0.445671 11.0027 0.446046Z" stroke="#232323" stroke-width="0.933333"/>
</svg>
