<svg width="13" height="13" viewBox="0 0 13 13" fill="none" xmlns="http://www.w3.org/2000/svg">
<path d="M12.8362 12.0734L9.10626 8.33781C9.84158 7.45523 10.2838 6.32735 10.2838 5.09548C10.2838 2.2851 7.9793 0 5.14458 0C2.30987 0 0 2.28777 0 5.09814C0 7.90852 2.30454 10.1936 5.13926 10.1936C6.34348 10.1936 7.45179 9.78033 8.33098 9.08973L12.0742 12.836C12.2927 13.0547 12.6177 13.0547 12.8362 12.836C13.0546 12.6174 13.0546 12.2921 12.8362 12.0734ZM1.09233 5.09814C1.09233 2.89037 2.90931 1.09589 5.13926 1.09589C7.3692 1.09589 9.18619 2.89037 9.18619 5.09814C9.18619 7.30592 7.3692 9.1004 5.13926 9.1004C2.90931 9.1004 1.09233 7.30325 1.09233 5.09814Z" fill="#232323"/>
</svg>
