<svg width="20" height="20" viewBox="0 0 20 20" fill="none" xmlns="http://www.w3.org/2000/svg">
<path d="M4.13675 1.08187C3.74612 1.24593 3.32034 1.57796 2.6094 2.28109C2.03518 2.84749 1.91018 2.99202 1.87893 3.12093C1.80862 3.39827 1.94143 3.69906 2.19534 3.82796C2.33596 3.90218 2.61331 3.90609 2.74221 3.83968M4.13675 1.08187C4.39065 0.980306 4.55862 0.968587 4.74221 1.04671C5.02346 1.1639 5.15628 1.55062 5.01565 1.85531C4.96487 1.9764 4.87503 2.06234 4.6719 2.20296M4.13675 1.08187L4.15611 1.12797C4.15598 1.12802 4.15585 1.12808 4.15572 1.12813M4.13675 1.08187L4.15531 1.12829C4.15545 1.12824 4.15558 1.12819 4.15572 1.12813M4.6719 2.20296C4.15237 2.55062 3.68362 2.93734 3.25784 3.36312C3.02346 3.6014 2.78909 3.81234 2.74221 3.83968M4.6719 2.20296L4.64344 2.16185C4.64355 2.16178 4.64366 2.1617 4.64377 2.16163M4.6719 2.20296L4.64409 2.16141C4.64399 2.16148 4.64388 2.16155 4.64377 2.16163M2.74221 3.83968L2.71702 3.79649C2.71732 3.79632 2.71764 3.79613 2.71798 3.79591M2.74221 3.83968L2.71932 3.79523C2.71887 3.79546 2.71843 3.79569 2.71798 3.79591M2.71798 3.79591C2.72591 3.791 2.74563 3.77589 2.77725 3.74907C2.80883 3.72226 2.84935 3.68634 2.89593 3.64364C2.98906 3.55828 3.10562 3.44657 3.22219 3.32806L3.22219 3.32806L3.22248 3.32776C3.65047 2.89977 4.12164 2.51105 4.64377 2.16163M2.71798 3.79591C2.66401 3.8232 2.57277 3.83844 2.47412 3.83656C2.37506 3.83469 2.27934 3.81576 2.21868 3.78374L2.21798 3.78337L2.21797 3.78338C1.98545 3.66533 1.86268 3.38848 1.9274 3.13322L1.92753 3.13271L1.92753 3.13271C1.94021 3.08038 1.97256 3.01954 2.07829 2.89787C2.18375 2.77652 2.35715 2.60014 2.64451 2.31668L2.64456 2.31664C3.35511 1.6139 3.77491 1.28817 4.15572 1.12813M4.64377 2.16163C4.84581 2.02172 4.92477 1.94274 4.96954 1.83597L4.96951 1.83596L4.97025 1.83435C5.10081 1.55147 4.97423 1.19755 4.72298 1.09287L4.72264 1.09272C4.55562 1.02165 4.40231 1.02955 4.15572 1.12813" fill="#232323" stroke="#EBE9E5" stroke-width="0.1"/>
<path d="M13.7837 1.48524L13.7836 1.48544C13.7512 1.6621 13.8137 1.87031 13.9282 1.97843C13.989 2.03148 14.1582 2.15845 14.3055 2.2593C14.7461 2.55824 15.0999 2.85325 15.6131 3.35471L15.6133 3.35483L16.0763 3.81027L16.2839 3.82101L16.2839 3.821L16.2847 3.82106C16.4217 3.83044 16.5269 3.81315 16.6109 3.76986C16.6944 3.72684 16.7621 3.65544 16.8191 3.5469L16.8191 3.5468C16.8711 3.4484 16.8966 3.35926 16.8988 3.27347C16.901 3.18792 16.8801 3.10231 16.8343 3.01069C16.8254 2.99325 16.8026 2.96165 16.765 2.91645C16.7281 2.87224 16.6797 2.81808 16.6223 2.75671C16.5076 2.63402 16.3587 2.48388 16.1991 2.3292C15.8795 2.01933 15.5201 1.69405 15.3098 1.5359L15.3098 1.53587C15.0427 1.33458 14.796 1.19294 14.5862 1.11508C14.3749 1.03669 14.2096 1.02606 14.0983 1.07297C14.0451 1.0974 13.9723 1.1637 13.9078 1.24722C13.8432 1.33081 13.7952 1.42081 13.7837 1.48524Z" fill="#232323" stroke="#EBE9E5" stroke-width="0.1"/>
<path d="M13.8751 13.9494C13.3447 14.4759 12.9422 14.776 12.359 15.0794C11.265 15.65 10.1817 15.8784 8.9383 15.7998C6.74031 15.6619 4.71666 14.2915 3.74409 12.2834C3.34647 11.4645 3.16126 10.7155 3.12584 9.783L3.12584 9.78286C3.09046 8.77649 3.23987 7.89017 3.59855 7.04669C4.53618 4.84051 6.72184 3.36867 9.21657 3.25849C11.3667 3.16398 13.289 4.11749 14.5525 5.90836C14.7756 6.21751 14.8588 6.30462 14.9941 6.36872L14.9941 6.3687L14.9956 6.36946C15.1179 6.4325 15.2218 6.45197 15.3175 6.4341C15.4138 6.41612 15.5096 6.35899 15.6128 6.25387L15.6131 6.25356C15.7206 6.14611 15.7774 6.05055 15.794 5.95288C15.8106 5.85538 15.7886 5.74738 15.7209 5.61205L15.7208 5.61179C15.5912 5.34871 15.2991 4.96326 14.9526 4.57873C14.6068 4.19496 14.2108 3.81663 13.8764 3.56728L13.8763 3.56724C12.9997 2.91168 11.9323 2.43806 10.8299 2.209C10.5222 2.14748 10.2644 2.12796 9.54999 2.11625C9.05652 2.10842 8.54132 2.11643 8.40534 2.13531L8.40529 2.13532C5.84441 2.48841 3.69889 4.10618 2.64337 6.48109L2.64334 6.48117C1.73498 8.51527 1.74314 10.7773 2.65846 12.7088C3.01159 13.45 3.38348 13.9885 3.96955 14.594L3.96965 14.5941C4.06956 14.6979 4.16086 14.7961 4.22735 14.8709C4.26053 14.9083 4.28794 14.9403 4.30725 14.9645C4.31682 14.9765 4.32501 14.9874 4.33103 14.9964C4.33399 15.0008 4.33708 15.0058 4.33962 15.0108L4.33974 15.011C4.34126 15.014 4.3469 15.0251 4.3469 15.0389C4.3469 15.0511 4.34242 15.0604 4.34144 15.0624L4.34135 15.0626C4.33964 15.0662 4.33774 15.0693 4.3363 15.0716C4.33334 15.0762 4.32964 15.0812 4.32581 15.0862C4.31799 15.0963 4.307 15.1094 4.29356 15.1249C4.26652 15.1561 4.22775 15.199 4.18023 15.2502C4.08509 15.3527 3.95388 15.4898 3.80906 15.6365L3.80898 15.6366C3.59388 15.8537 3.46379 15.9906 3.38502 16.0875C3.30649 16.1841 3.28356 16.2356 3.27591 16.2815L3.27592 16.2815L3.27576 16.2824C3.21435 16.6147 3.43806 16.9177 3.75052 16.95C3.80112 16.9538 3.86052 16.9547 3.91429 16.9528C3.96957 16.9509 4.0145 16.9461 4.03793 16.9398L4.03792 16.9398L4.03935 16.9395C4.03932 16.9395 4.03933 16.9395 4.03937 16.9395C4.03962 16.9394 4.04126 16.9389 4.0446 16.9373C4.04831 16.9356 4.05317 16.9331 4.05927 16.9295C4.07152 16.9223 4.08712 16.9118 4.10612 16.8978C4.14406 16.87 4.19308 16.8301 4.25191 16.779C4.36946 16.6769 4.52389 16.5322 4.70315 16.3549L5.2812 15.7808L5.30871 15.7535L5.34202 15.7733L5.52562 15.8827L5.52569 15.8827C5.90134 16.1073 6.65579 16.4496 7.06649 16.5852L7.06655 16.5852C8.64569 17.109 10.4309 17.0779 11.967 16.5077L11.9671 16.5076C12.3551 16.3641 12.9847 16.0608 13.2547 15.8911L13.2812 15.9334L13.2544 15.8913C13.2989 15.863 13.3446 15.8376 13.3832 15.819C13.4024 15.8098 13.4206 15.8019 13.4363 15.7963C13.4502 15.7913 13.4681 15.7858 13.4844 15.7858C13.4938 15.7858 13.5013 15.7883 13.5049 15.7896C13.5092 15.7911 13.513 15.793 13.516 15.7946C13.5221 15.7979 13.5284 15.802 13.5346 15.8063C13.547 15.815 13.5625 15.8271 13.5802 15.8417C13.6159 15.8711 13.6636 15.9131 13.7198 15.9644C13.8322 16.067 13.9802 16.2081 14.1367 16.3627L14.1369 16.3629C14.4431 16.6691 14.6172 16.832 14.7491 16.9122C14.8135 16.9513 14.8655 16.9692 14.9162 16.9748C14.9676 16.9805 15.0214 16.974 15.0906 16.9589M13.8751 13.9494L13.8399 13.9139L13.8751 13.9494C13.8751 13.9494 13.8751 13.9494 13.8751 13.9494ZM13.8751 13.9494C14.126 13.7005 14.2806 13.5619 14.4047 13.491C14.4655 13.4563 14.5176 13.4388 14.569 13.4323C14.6208 13.4259 14.6748 13.4303 14.7402 13.4434L14.7424 13.4438L14.7424 13.4438C14.8281 13.457 14.9202 13.5142 15.0311 13.625L15.0315 13.6255C15.1086 13.7006 15.1439 13.7406 15.1624 13.7796C15.18 13.8168 15.1844 13.8572 15.1844 13.9413C15.1844 14.0628 15.1636 14.1597 15.1023 14.27C15.0397 14.3826 14.9343 14.5105 14.7608 14.6918L14.7609 14.6917L14.7968 14.7263L14.7608 14.6918L14.4601 15.0042L14.4261 15.0396L14.4608 15.0743L14.9451 15.5586C15.0794 15.6929 15.2077 15.828 15.3061 15.9376C15.3553 15.9924 15.3968 16.0405 15.4278 16.0788C15.4601 16.1187 15.4773 16.1437 15.4821 16.154L15.4823 16.1542C15.64 16.484 15.4467 16.876 15.0906 16.9589M15.0906 16.9589C15.0907 16.9589 15.0908 16.9588 15.0909 16.9588L15.1016 17.0076L15.0903 16.959C15.0904 16.9589 15.0905 16.9589 15.0906 16.9589ZM8.39847 2.08579C5.82034 2.44126 3.66018 4.07016 2.59768 6.46079L8.39847 2.08579Z" fill="#232323" stroke="#EBE9E5" stroke-width="0.1"/>
<path d="M9.76563 5.09375L9.73646 5.13437C9.66945 5.08626 9.56826 5.05304 9.46207 5.04192C9.35568 5.03077 9.25254 5.04264 9.18165 5.07639L9.18168 5.07645L9.17939 5.0774C9.11882 5.10264 9.04364 5.16297 8.97903 5.23465C8.91369 5.30715 8.86813 5.3813 8.85737 5.42898L8.85738 5.42899L8.85726 5.42946C8.8573 5.42931 8.85732 5.42922 8.85733 5.42923C8.8574 5.42924 8.85695 5.43237 8.85638 5.44103C8.85576 5.45048 8.85514 5.46363 8.85453 5.48049C8.85333 5.51414 8.85224 5.56126 8.85126 5.62051C8.84931 5.73894 8.84785 5.90485 8.84687 6.1062C8.84492 6.50885 8.84492 7.05265 8.84687 7.64046L8.84694 7.65265C8.85276 8.69595 8.85571 9.22579 8.86734 9.50869C8.8732 9.65126 8.88117 9.72747 8.89177 9.77407C8.90135 9.81619 8.91255 9.8326 8.93015 9.85608C8.97396 9.91063 9.06275 9.99171 9.13052 10.0309L9.13052 10.0309L9.131 10.0312C9.15927 10.048 9.18274 10.0597 9.223 10.069C9.26521 10.0788 9.32664 10.0861 9.43067 10.0912C9.63859 10.1014 10.0051 10.1023 10.7031 10.1023C11.407 10.1023 11.7725 10.1013 11.9789 10.0907C12.0821 10.0854 12.1425 10.0777 12.1843 10.0675C12.2243 10.0578 12.2484 10.0454 12.2793 10.0272L12.2796 10.0271C12.6588 9.80675 12.6703 9.26392 12.3098 9.04261C12.2821 9.02565 12.259 9.01393 12.2249 9.00477C12.1895 8.99524 12.1406 8.98805 12.0613 8.983C11.9022 8.97288 11.6317 8.97188 11.125 8.97188H10.0391H9.98906V8.92188V7.21094C9.98906 6.41946 9.9871 5.99101 9.9769 5.74179C9.96671 5.49294 9.94841 5.42945 9.9192 5.36417L9.91899 5.36369C9.8835 5.28205 9.79937 5.1798 9.73635 5.13428L9.76563 5.09375ZM9.76563 5.09375C9.83594 5.14453 9.92578 5.25391 9.96484 5.34375L8.80859 5.41797C8.83594 5.29688 9.01953 5.08984 9.16016 5.03125C9.32422 4.95313 9.61328 4.98438 9.76563 5.09375Z" fill="#232323" stroke="#EBE9E5" stroke-width="0.1"/>
<path d="M14.8089 7.85653L14.8083 7.85681C14.6439 7.94275 14.5679 8.02097 14.5149 8.14814L14.5148 8.14828C14.4109 8.39571 14.485 8.66455 14.7097 8.83501C14.7441 8.86057 14.767 8.87695 14.7934 8.8895C14.819 8.90173 14.8501 8.91126 14.9001 8.91882C15.0027 8.93436 15.1735 8.9402 15.517 8.95002C15.517 8.95002 15.517 8.95002 15.5171 8.95002L16.2123 8.96955L16.3127 8.97237L16.25 9.05077L15.4062 10.1055L15.4062 10.1055C15.1739 10.3944 14.9563 10.6705 14.793 10.8821C14.7113 10.9879 14.6433 11.0775 14.5938 11.1444C14.5691 11.1778 14.5492 11.2054 14.5345 11.2264C14.5191 11.2485 14.5116 11.2606 14.5096 11.2645L14.5096 11.2646L14.5091 11.2655C14.4766 11.3272 14.4642 11.4319 14.4746 11.5427C14.4849 11.6532 14.5167 11.756 14.5597 11.8139L14.5597 11.8139L14.5602 11.8147C14.5954 11.864 14.6772 11.9424 14.7327 11.9831L14.7327 11.9831L14.7329 11.9833C14.7567 12.0009 14.7737 12.0119 14.8068 12.021C14.8426 12.0308 14.898 12.0385 14.9983 12.0438C15.1982 12.0545 15.5617 12.0555 16.2695 12.0555C16.9793 12.0555 17.3428 12.0545 17.5427 12.0438C17.6429 12.0385 17.6984 12.0309 17.7346 12.021C17.7679 12.0119 17.7855 12.0008 17.8104 11.983C17.9905 11.8487 18.077 11.6726 18.077 11.5C18.077 11.3274 17.9904 11.1512 17.8102 11.0168C17.7871 10.9999 17.7678 10.9883 17.7429 10.9792C17.7172 10.9697 17.6834 10.962 17.6305 10.9559C17.5236 10.9436 17.3498 10.9387 17.0304 10.9328L17.0303 10.9328L16.3312 10.9211L16.2295 10.9194L16.2929 10.8399L17.1562 9.75788L17.1564 9.75767C17.4002 9.45536 17.6215 9.16973 17.7856 8.94961C17.8677 8.83951 17.9353 8.74605 17.9842 8.67521C18.0087 8.63976 18.0282 8.61031 18.0425 8.58745C18.057 8.56416 18.0641 8.55071 18.0663 8.54523C18.1547 8.28936 18.0305 7.99934 17.7753 7.87713L17.7753 7.87713L17.7745 7.87675C17.7373 7.85815 17.7073 7.8451 17.6634 7.83498C17.6183 7.82459 17.5571 7.81696 17.4578 7.81165C17.2588 7.801 16.9168 7.8 16.2656 7.8C15.6852 7.8 15.3416 7.80196 15.1305 7.8107C14.9164 7.81956 14.8479 7.83548 14.8089 7.85653Z" fill="#232323" stroke="#EBE9E5" stroke-width="0.1"/>
</svg>
