<svg width="12" height="12" viewBox="0 0 12 12" fill="none" xmlns="http://www.w3.org/2000/svg">
<path d="M11.8488 11.1447L8.40578 7.69644C9.08454 6.88175 9.49278 5.84063 9.49278 4.70352C9.49278 2.10932 7.36551 0 4.74885 0C2.13219 0 0 2.11178 0 4.70598C0 7.30017 2.12727 9.4095 4.74393 9.4095C5.85552 9.4095 6.87857 9.028 7.69013 8.39052L11.1454 11.8486C11.3471 12.0505 11.6471 12.0505 11.8488 11.8486C12.0504 11.6468 12.0504 11.3465 11.8488 11.1447ZM1.0083 4.70598C1.0083 2.66803 2.68552 1.01159 4.74393 1.01159C6.80234 1.01159 8.47956 2.66803 8.47956 4.70598C8.47956 6.74392 6.80234 8.40037 4.74393 8.40037C2.68552 8.40037 1.0083 6.74146 1.0083 4.70598Z" fill="#929090"/>
</svg>
